<svg width="14" height="16" viewBox="0 0 14 16" fill="none" xmlns="http://www.w3.org/2000/svg">
<path d="M10.9074 5.21082C12.0298 5.21082 12.9397 4.30091 12.9397 3.17847C12.9397 2.05603 12.0298 1.14612 10.9074 1.14612C9.78492 1.14612 8.875 2.05603 8.875 3.17847C8.875 4.30091 9.78492 5.21082 10.9074 5.21082Z" stroke="black" stroke-linecap="round" stroke-linejoin="round"/>
<path d="M2.77796 9.95289C3.9004 9.95289 4.81031 9.04297 4.81031 7.92054C4.81031 6.7981 3.9004 5.88818 2.77796 5.88818C1.65552 5.88818 0.745605 6.7981 0.745605 7.92054C0.745605 9.04297 1.65552 9.95289 2.77796 9.95289Z" stroke="black" stroke-linecap="round" stroke-linejoin="round"/>
<path d="M10.9074 14.6951C12.0298 14.6951 12.9397 13.7852 12.9397 12.6627C12.9397 11.5403 12.0298 10.6304 10.9074 10.6304C9.78492 10.6304 8.875 11.5403 8.875 12.6627C8.875 13.7852 9.78492 14.6951 10.9074 14.6951Z" stroke="black" stroke-linecap="round" stroke-linejoin="round"/>
<path d="M4.53271 8.9436L9.15971 11.6399" stroke="black" stroke-linecap="round" stroke-linejoin="round"/>
<path d="M9.15293 4.20142L4.53271 6.89767" stroke="black" stroke-linecap="round" stroke-linejoin="round"/>
</svg>
