<svg width="14" height="16" viewBox="0 0 14 16" fill="none" xmlns="http://www.w3.org/2000/svg">
<path d="M10.5364 5.4225C11.6437 5.4225 12.5413 4.52491 12.5413 3.41767C12.5413 2.31043 11.6437 1.41284 10.5364 1.41284C9.42921 1.41284 8.53162 2.31043 8.53162 3.41767C8.53162 4.52491 9.42921 5.4225 10.5364 5.4225Z" stroke="black" stroke-linecap="round" stroke-linejoin="round"/>
<path d="M2.51713 10.1004C3.62436 10.1004 4.52196 9.20282 4.52196 8.09559C4.52196 6.98835 3.62436 6.09076 2.51713 6.09076C1.40989 6.09076 0.512299 6.98835 0.512299 8.09559C0.512299 9.20282 1.40989 10.1004 2.51713 10.1004Z" stroke="black" stroke-linecap="round" stroke-linejoin="round"/>
<path d="M10.5364 14.7784C11.6437 14.7784 12.5413 13.8808 12.5413 12.7736C12.5413 11.6663 11.6437 10.7687 10.5364 10.7687C9.42921 10.7687 8.53162 11.6663 8.53162 12.7736C8.53162 13.8808 9.42921 14.7784 10.5364 14.7784Z" stroke="black" stroke-linecap="round" stroke-linejoin="round"/>
<path d="M4.24796 9.10474L8.81228 11.7645" stroke="black" stroke-linecap="round" stroke-linejoin="round"/>
<path d="M8.8056 4.42676L4.24796 7.0865" stroke="black" stroke-linecap="round" stroke-linejoin="round"/>
</svg>
