<svg width="8" height="8" viewBox="0 0 8 8" fill="none" xmlns="http://www.w3.org/2000/svg">
<path d="M3.52593 7.99998C5.47325 7.99998 7.05186 6.42137 7.05186 4.47405C7.05186 2.52673 5.47325 0.94812 3.52593 0.94812C1.57861 0.94812 0 2.52673 0 4.47405C0 6.42137 1.57861 7.99998 3.52593 7.99998Z" fill="black"/>
<path d="M2.49994 3.41627C2.58284 3.18062 2.74646 2.98191 2.96182 2.85534C3.17718 2.72877 3.4304 2.6825 3.6766 2.72473C3.92281 2.76696 4.14613 2.89497 4.30701 3.08607C4.46788 3.27718 4.55593 3.51906 4.55556 3.76886C4.55556 4.47405 3.49778 4.82664 3.49778 4.82664" stroke="white" stroke-linecap="round" stroke-linejoin="round"/>
<path d="M3.52594 6.23703H3.52982" stroke="white" stroke-linecap="round" stroke-linejoin="round"/>
</svg>
